<svg xmlns="http://www.w3.org/2000/svg" width="1200" height="800" viewBox="0 0 1200 800" role="img" aria-label="Cloud operations visual">
  <defs>
    <linearGradient id="cloud-bg" x1="0%" y1="0%" x2="100%" y2="100%">
      <stop offset="0%" stop-color="#0d3a5c" />
      <stop offset="100%" stop-color="#12a07c" />
    </linearGradient>
    <linearGradient id="cloud-lines" x1="0%" y1="0%" x2="100%" y2="0%">
      <stop offset="0%" stop-color="#82e5ff" stop-opacity="0.7" />
      <stop offset="100%" stop-color="#b0f1dc" stop-opacity="0.9" />
    </linearGradient>
  </defs>
  <rect width="1200" height="800" fill="url(#cloud-bg)" rx="24" />
  <g fill="#0b2c45" opacity="0.55">
    <ellipse cx="360" cy="360" rx="160" ry="90" />
    <ellipse cx="520" cy="340" rx="170" ry="100" />
    <ellipse cx="690" cy="360" rx="150" ry="90" />
    <ellipse cx="840" cy="340" rx="160" ry="100" />
    <ellipse cx="520" cy="470" rx="180" ry="110" />
    <ellipse cx="760" cy="470" rx="180" ry="110" />
  </g>
  <g stroke="url(#cloud-lines)" stroke-width="4" fill="none" stroke-linecap="round" opacity="0.9">
    <path d="M320 520 Q520 610 720 520 T1120 520" />
    <path d="M340 470 Q520 540 700 470 T1080 470" />
    <path d="M360 420 Q520 470 680 420 T1040 420" />
  </g>
  <text x="90" y="120" fill="#e8f9ff" font-family="'Inter','Segoe UI',sans-serif" font-size="46" font-weight="700">CloudOps at scale</text>
  <text x="90" y="160" fill="#d3f2e5" font-family="'Inter','Segoe UI',sans-serif" font-size="22" font-weight="600">Visibility, guardrails, and resilience</text>
</svg>
