<svg xmlns="http://www.w3.org/2000/svg" width="1200" height="800" viewBox="0 0 1200 800" role="img" aria-label="Hands-on delivery visual">
  <defs>
    <linearGradient id="del-bg" x1="0%" y1="0%" x2="100%" y2="100%">
      <stop offset="0%" stop-color="#0d456d" />
      <stop offset="100%" stop-color="#11a063" />
    </linearGradient>
    <linearGradient id="del-lines" x1="0%" y1="0%" x2="0%" y2="100%">
      <stop offset="0%" stop-color="#7de0ff" stop-opacity="0.7" />
      <stop offset="100%" stop-color="#b2f4d9" stop-opacity="0.9" />
    </linearGradient>
  </defs>
  <rect width="1200" height="800" fill="url(#del-bg)" rx="24" />
  <g stroke="url(#del-lines)" stroke-width="5" stroke-linecap="round" fill="none" opacity="0.9">
    <polyline points="180,260 340,260 340,380 520,380 520,260 720,260 720,380 940,380 940,260 1040,260" />
    <polyline points="240,500 420,500 420,620 600,620 600,500 860,500 860,620 1000,620" />
    <line x1="340" y1="320" x2="340" y2="500" />
    <line x1="520" y1="320" x2="520" y2="500" />
    <line x1="720" y1="320" x2="720" y2="500" />
    <line x1="940" y1="320" x2="940" y2="500" />
  </g>
  <text x="100" y="100" fill="#e4f8ff" font-family="'Inter','Segoe UI',sans-serif" font-size="46" font-weight="700">Hands-on delivery</text>
  <text x="100" y="140" fill="#cff1e4" font-family="'Inter','Segoe UI',sans-serif" font-size="22" font-weight="600">Pipelines, reliability, and platform automation</text>
</svg>
